<?xml version="1.0" encoding="UTF-8"?>
<svg version="1.1" xmlns="http://www.w3.org/2000/svg" width="491" height="372">
<path d="M0 0 C162.03 0 324.06 0 491 0 C491 122.76 491 245.52 491 372 C328.97 372 166.94 372 0 372 C0 249.24 0 126.48 0 0 Z " fill="none" transform="translate(0,0)"/>
<path d="M0 0 C11.48946498 4.80954348 17.78439686 21.24044732 22.2421875 32.01953125 C25.48999386 40.80469109 27.56697434 50.01661898 29.6875 59.125 C29.95820313 60.28386719 30.22890625 61.44273438 30.5078125 62.63671875 C33.88548915 79.6916072 32.70014551 97.28341777 22.98828125 111.984375 C14.80454712 123.1553805 5.40876753 131.5454967 -7.3125 137.125 C-8.3025 137.125 -9.2925 137.125 -10.3125 137.125 C-9.92578125 138.11757812 -9.5390625 139.11015625 -9.140625 140.1328125 C-8.61427234 141.50508909 -8.08824892 142.87749199 -7.5625 144.25 C-7.30984375 144.89582031 -7.0571875 145.54164063 -6.796875 146.20703125 C-2.48599752 157.52308463 0.30256975 168.93225007 1.8125 180.9375 C1.97717773 182.22374268 2.14185547 183.50998535 2.31152344 184.83520508 C5.61872987 211.53299376 6.00460022 238.25685417 5.6875 265.125 C6.50009277 265.09889648 7.31268555 265.07279297 8.14990234 265.04589844 C9.22191895 265.0255957 10.29393555 265.00529297 11.3984375 264.984375 C12.45853027 264.95827148 13.51862305 264.93216797 14.61083984 264.90527344 C19.12654702 265.22777276 22.46059192 266.98083315 25.6875 270.125 C28.47914569 274.51449553 28.32390666 279.0894323 27.6875 284.125 C25.29787608 289.17997367 22.81091587 291.07974563 17.6875 293.125 C14.67244811 293.54043682 11.6965929 293.53033658 8.65670776 293.50595093 C7.75758293 293.5106309 6.8584581 293.51531087 5.93208706 293.52013266 C2.92446321 293.53208179 -0.08270493 293.52262544 -3.09033203 293.51318359 C-5.24906174 293.5172495 -7.40778937 293.52259148 -9.56651306 293.52911377 C-15.42839864 293.54279578 -21.29012589 293.53748368 -27.15201426 293.52797651 C-33.29233634 293.52037871 -39.43264491 293.52742641 -45.57296753 293.53213501 C-55.89111766 293.53759467 -66.2092034 293.53039798 -76.52734375 293.51611328 C-88.43902361 293.49981235 -100.3505492 293.50505588 -112.26222527 293.5215925 C-122.49855589 293.53523235 -132.73484021 293.53711403 -142.97117698 293.52927649 C-149.08042098 293.52461038 -155.18959265 293.52394537 -161.29883194 293.53388596 C-167.04937721 293.54258874 -172.79972503 293.53647325 -178.5502491 293.51920319 C-180.65443533 293.51525489 -182.75863833 293.51634379 -184.86281776 293.52299118 C-198.40771408 293.56181656 -210.89034239 293.24813034 -223 286.4375 C-223.95060303 285.90987061 -223.95060303 285.90987061 -224.92041016 285.37158203 C-240.23529005 276.60513354 -248.54890478 262.77631721 -253.3125 246.125 C-254.45423821 241.62128943 -254.45066205 237.19372723 -254.43847656 232.57788086 C-254.4403447 231.72835846 -254.44221283 230.87883606 -254.44413757 230.00357056 C-254.44813317 228.16261536 -254.45021564 226.32165522 -254.45059967 224.48069572 C-254.45403115 220.55253271 -254.47541803 216.62453283 -254.49583054 212.69642735 C-254.53374085 205.39110237 -254.56512238 198.0859523 -254.56298828 190.78051758 C-254.56219713 185.6911039 -254.5857374 180.60228977 -254.6248703 175.51303291 C-254.63527139 173.58317326 -254.63689819 171.65324391 -254.62921906 169.72337151 C-254.57560969 154.75162824 -256.28635889 142.30130256 -267.3125 131.125 C-278.19968506 121.72243108 -289.28104099 120.07881624 -303.22998047 120.92675781 C-314.09941552 121.96145667 -321.20617955 128.28612725 -328.1640625 136.2421875 C-333.0181789 142.38754669 -335.33895678 147.8061931 -335.75 155.6875 C-336.07641062 161.72262403 -337.02068469 164.83318469 -341.3125 169.125 C-345.42560464 169.5588366 -349.10810836 169.75730561 -352.8125 167.8125 C-356.20395325 163.99711509 -355.58130311 159.18941896 -355.5234375 154.375 C-354.60090815 140.16121443 -347.1180568 127.14640239 -337.3125 117.125 C-323.18971035 105.02565097 -307.99326725 99.83268808 -289.56396484 100.91357422 C-273.21655171 102.44869239 -260.30156003 110.36560529 -249.3125 122.125 C-240.3784704 133.55794464 -234.97993196 147.40900451 -235.05712891 161.92089844 C-235.05350845 162.76110535 -235.049888 163.60131226 -235.04615784 164.46697998 C-235.03930357 166.27840852 -235.03675089 168.08985753 -235.03810501 169.90129852 C-235.03907745 172.77859729 -235.02604267 175.65552978 -235.00912476 178.53277588 C-234.96307568 186.70899634 -234.9382673 194.88517759 -234.93164062 203.06152344 C-234.926598 208.07650881 -234.90221086 213.09110993 -234.86631393 218.10596466 C-234.85658101 220.00512627 -234.85414804 221.90434116 -234.85948563 223.8035202 C-234.90253423 239.87552078 -233.23100334 251.88580602 -221.62109375 263.87109375 C-213.72606412 271.21658535 -204.77105227 272.89648381 -194.3125 274.125 C-194.23902344 273.1040625 -194.23902344 273.1040625 -194.1640625 272.0625 C-193.90835827 268.7471624 -193.61194053 265.4366697 -193.3125 262.125 C-193.22484375 260.99964844 -193.1371875 259.87429688 -193.046875 258.71484375 C-192.15890384 249.69035423 -190.20467678 241.09080337 -187.9375 232.3125 C-187.64536621 231.17997803 -187.35323242 230.04745605 -187.05224609 228.88061523 C-180.71759994 205.0760667 -170.11248686 181.86698598 -155.3125 162.125 C-154.32056641 160.79662109 -154.32056641 160.79662109 -153.30859375 159.44140625 C-138.719832 140.81097616 -121.59867962 127.29907229 -100.3125 117.125 C-99.6525 117.125 -98.9925 117.125 -98.3125 117.125 C-98.61542969 116.55136719 -98.91835938 115.97773438 -99.23046875 115.38671875 C-110.32331035 92.89384917 -118.21589099 56.87089397 -110.24609375 32.50390625 C-108.73195557 28.64570478 -107.12568599 24.85261587 -105.3125 21.125 C-98.88425028 20.45539065 -95.33584805 22.15416297 -90.3125 26.125 C-85.56853972 30.33321249 -81.57640715 34.68515475 -78.3125 40.125 C-73.57287437 38.3207107 -69.0509498 36.09299576 -64.54296875 33.77929688 C-53.47090068 28.40643016 -42.12669117 27.69827847 -30 27.9375 C-28.66212475 27.95260164 -27.32423266 27.96628019 -25.98632812 27.97851562 C-22.76127252 28.01344403 -19.53711852 28.06248876 -16.3125 28.125 C-16.09335937 27.07441406 -15.87421875 26.02382813 -15.6484375 24.94140625 C-10.2581664 0.55449548 -10.2581664 0.55449548 0 0 Z " fill="#020101" transform="translate(370.3125,32.875)"/>
<path d="M0 0 C3.4375 1 3.4375 1 5.4375 2.625 C6.90731805 6.11581787 6.42163921 8.39148956 5.4375 12 C3.31878452 14.34572071 2.0349873 14.89543972 -1.0625 15.4375 C-3.5625 15 -3.5625 15 -5.875 13.4375 C-8.20476201 10.07228821 -8.13539582 8.01027077 -7.5625 4 C-5.30132583 0.38212133 -4.292718 0 0 0 Z " fill="#F1EEEA" transform="translate(316.5625,104)"/>
<path d="M0 0 C2.375 1.5625 2.375 1.5625 4 4 C4.42519574 7.46230815 4.63902633 9.8347167 2.9375 12.9375 C-0.1652833 14.63902633 -2.53769185 14.42519574 -6 14 C-8.4375 12.375 -8.4375 12.375 -10 10 C-10.61195145 6.3282913 -10.48706506 4.71186432 -8.375 1.625 C-5.28813568 -0.48706506 -3.6717087 -0.61195145 0 0 Z " fill="#F5F3EE" transform="translate(369,94)"/>
<path d="M0 0 C0.66 0.66 1.32 1.32 2 2 C1.77986323 4.86177795 1.3963898 6.51743851 -0.4375 8.75 C-3.85490335 11.48392268 -6.70596093 11.30133608 -11 11 C-12.9375 9.8125 -12.9375 9.8125 -14 8 C-14.1875 5.3125 -14.1875 5.3125 -14 3 C-8.88990896 -0.44148988 -6.24135045 -1.71331189 0 0 Z " fill="#F0EEEC" transform="translate(352,117)"/>
</svg>
