<svg version="1.1" id="Layer_1" xmlns="http://www.w3.org/2000/svg" xmlns:xlink="http://www.w3.org/1999/xlink" x="0px" y="0px"
	 width="100%" viewBox="0 0 1024 1024" enable-background="new 0 0 1024 1024" xml:space="preserve">
<path fill="#000000" opacity="1.000000" stroke="none" 
	d=" M409.999939,876.314209 C375.675720,876.314758 341.851532,876.336304 308.027374,876.309082 C277.053284,876.284119 253.660263,852.984680 253.646713,821.938416 C253.599243,713.134583 253.712616,604.330566 253.576309,495.526886 C253.543320,469.189423 262.537872,446.717743 280.696228,427.844116 C287.970673,420.283081 295.453735,412.918030 302.970947,405.596313 C316.441162,392.476379 322.424866,376.307648 323.748810,357.791565 C325.266083,336.571716 327.546478,315.406677 329.470093,294.215515 C330.882660,278.653961 332.244537,263.087769 333.652740,247.525818 C333.939941,244.352234 333.245209,242.005173 330.368195,239.862152 C323.842468,235.001343 320.698334,228.140976 320.672272,219.971069 C320.632385,207.474594 320.611359,194.977554 320.682617,182.481339 C320.783966,164.705582 334.661194,150.182129 352.525238,149.899246 C375.013641,149.543121 397.515900,149.516449 420.004089,149.865784 C437.654144,150.139969 450.786865,163.493073 451.791412,182.654633 C452.496094,196.096420 452.532379,209.628479 451.425476,223.101761 C450.828156,230.372589 447.355927,236.108017 441.562531,240.270187 C439.040619,242.082001 438.247345,243.844391 438.572632,246.900909 C439.961823,259.954987 441.086243,273.037323 442.297699,286.110199 C443.877289,303.154907 445.425964,320.202484 447.030243,337.244873 C448.011200,347.665710 448.876190,358.102936 450.143951,368.489990 C451.886658,382.768921 458.723846,394.620148 468.583588,404.802948 C477.158752,413.658997 486.224640,422.055878 494.541412,431.142822 C511.399445,449.561981 518.941223,471.677032 518.952271,496.455750 C519.000488,604.759521 519.095764,713.063416 518.958984,821.367004 C518.918457,853.473572 495.536652,876.292114 463.484802,876.309448 C445.823181,876.319031 428.161560,876.312988 409.999939,876.314209 313.500000,524.973877 C369.486725,524.972961 425.473419,524.971619 481.460144,524.971924 C486.458954,524.971985 491.457855,525.005493 496.456543,524.984131 C502.852020,524.956787 503.023071,524.732788 503.112000,518.128113 C503.172516,513.633057 503.168060,509.128540 503.466827,504.646515 C505.261780,477.718475 497.533295,454.373383 477.811737,435.409515 C471.087006,428.943146 464.534912,422.296539 457.934479,415.701752 C442.364716,400.145264 434.681274,381.307800 433.530670,359.359314 C432.721619,343.925537 430.852539,328.546600 429.424164,313.146179 C427.519989,292.616089 425.434204,272.101013 423.772827,251.551514 C423.382629,246.725433 421.919220,244.887619 416.894501,244.943436 C396.568604,245.169250 376.238678,245.022888 355.910217,245.035599 C349.074982,245.039871 348.829651,245.531006 348.293640,252.396957 C346.986755,269.137543 345.518127,285.866211 344.014221,302.590607 C342.152710,323.291504 340.159637,343.980499 338.280640,364.679840 C336.864044,380.285065 332.226379,394.731750 322.322968,407.044067 C316.272919,414.565765 309.460876,421.427216 302.332886,427.994659 C287.556488,441.609131 274.913422,456.737823 270.682220,477.147644 C267.777985,491.156616 269.620148,505.384979 269.053253,519.504028 C268.869934,524.070190 270.832306,525.115295 275.010254,525.044250 C287.503601,524.831909 300.002991,524.972107 313.500000,524.973877 M310.499908,742.627869 C372.467682,742.625671 434.435486,742.627930 496.403259,742.615417 C503.679413,742.613953 503.595490,742.570435 503.582214,735.442322 C503.538177,711.809143 503.367554,688.173767 503.608765,664.542908 C504.010010,625.239563 502.522369,585.936951 503.658905,546.639282 C503.805908,541.555481 502.088989,540.269775 497.079132,540.284851 C437.277557,540.465454 377.475250,540.405457 317.673157,540.408569 C303.847046,540.409302 290.020874,540.384399 276.194855,540.422852 C269.377411,540.441772 268.922546,540.975098 268.951538,547.923767 C268.989014,556.918884 269.035828,565.914001 269.037781,574.909119 C269.049286,628.381104 269.044098,681.853027 269.058441,735.325012 C269.060394,742.599792 269.096466,742.607422 276.517090,742.614624 C287.511353,742.625183 298.505615,742.623779 310.499908,742.627869 M288.501251,757.916504 C283.504761,757.901123 278.496704,758.087830 273.515747,757.801819 C269.998596,757.599854 268.863159,758.799133 268.892151,762.302917 C269.060059,782.620911 268.860596,802.942932 269.143707,823.258606 C269.439789,844.501282 285.960541,860.686707 307.168365,860.712769 C359.464996,860.776917 411.763733,860.479370 464.057465,860.875671 C483.284912,861.021423 503.133057,847.302429 503.520569,821.986145 C503.811096,803.004028 503.603607,784.013489 503.532135,765.027039 C503.507477,758.475464 502.832520,757.914185 496.355988,757.914001 C427.404266,757.912292 358.452515,757.914429 288.501251,757.916504 M345.200989,167.524338 C338.849731,171.172348 335.838684,176.633072 335.918945,183.979874 C336.042511,195.293488 335.901337,206.610123 336.040283,217.923416 C336.147736,226.674438 339.164856,229.645996 347.779083,229.659485 C373.403931,229.699585 399.028931,229.696930 424.653778,229.664627 C432.887482,229.654236 436.574341,226.028473 436.635223,217.831802 C436.716797,206.850296 436.734772,195.867126 436.642700,184.885818 C436.539978,172.633591 429.188904,165.336136 416.963745,165.311066 C396.330780,165.268723 375.697632,165.331818 355.064697,165.278290 C351.832550,165.269913 348.780731,165.744583 345.200989,167.524338 z"/>
<path fill="#000000" opacity="1.000000" stroke="none" 
	d="M596.043030,876.309448 C593.552246,876.301331 591.551392,876.347473 589.554871,876.274475 C583.880432,876.066895 580.858765,873.670898 579.940857,868.081665 C575.444519,840.702209 571.075623,813.301941 566.626831,785.914673 C562.178162,758.528931 557.694458,731.148804 553.212585,703.768494 C551.763306,694.914673 550.124390,686.089172 548.837524,677.212280 C547.400269,667.297546 550.323853,663.992615 560.347412,663.985901 C627.477783,663.940796 694.608093,663.923462 761.738464,663.927490 C770.787659,663.928040 773.863281,667.515991 772.443359,676.288330 C765.487793,719.260254 758.493347,762.225769 751.540588,805.198120 C748.171204,826.023254 744.924072,846.868347 741.492554,867.683167 C740.371399,874.483826 737.878052,876.303772 730.462402,876.306335 C685.819885,876.321716 641.177429,876.311157 596.043030,876.309448 M591.500061,679.375427 C584.338867,679.364319 577.168823,679.563965 570.019775,679.263733 C565.672913,679.081116 564.851196,681.043030 565.453491,684.696045 C572.044556,724.671753 578.696228,764.638000 585.082397,804.646545 C585.785828,809.053223 587.622070,811.168884 591.657837,812.800476 C617.008850,823.049316 643.450378,825.734924 670.478516,824.850586 C689.900940,824.215027 708.752747,821.009399 727.018921,814.030823 C733.261230,811.645996 735.871033,808.262817 736.865173,801.683960 C741.405029,771.640198 746.532837,741.685486 751.409119,711.692261 C753.106079,701.254700 754.687378,690.798218 756.473694,679.377380 C701.310669,679.377380 646.905396,679.377380 591.500061,679.375427 M712.793640,834.481262 C671.285095,844.231628 630.231873,842.397644 589.794922,828.767578 C589.173157,831.290649 589.444702,832.895020 589.749634,834.546936 C590.984619,841.235291 592.459595,847.906006 593.173767,854.654419 C593.659058,859.239990 595.268677,860.858948 600.015808,860.828369 C630.144836,860.634216 660.275635,860.729858 690.405884,860.727783 C701.059631,860.727051 711.713440,860.728149 722.367188,860.709717 C724.525696,860.705994 726.989685,860.981018 727.489441,858.021790 C729.112793,848.409790 730.634521,838.780640 732.294189,828.549194 C725.582153,830.626404 719.591187,832.480530 712.793640,834.481262 z"/>
<path fill="#000000" opacity="1.000000" stroke="none" 
	d="M463.525391,724.581909 C461.183502,726.219360 459.178925,727.717468 457.068054,729.046753 C454.454041,730.692810 451.643066,730.868225 449.035492,729.160950 C436.514526,720.962585 424.905243,711.839111 418.629181,697.628357 C415.366913,690.241760 414.706085,682.885376 419.288971,675.683594 C425.859253,665.358765 438.772827,663.566467 449.315735,671.885071 C452.073090,674.060730 453.660614,674.205872 456.442322,671.902588 C464.231934,665.452148 473.789856,664.993225 481.454224,670.164673 C488.363861,674.826843 491.284851,684.588928 488.640564,693.925842 C485.788818,703.995300 479.047424,711.300659 471.549194,718.050781 C469.078247,720.275208 466.399323,722.268555 463.525391,724.581909 M459.709839,708.231995 C465.828369,702.797546 471.686096,697.194275 474.083588,688.952393 C474.694000,686.853821 474.764282,684.944580 473.198029,683.398621 C471.394836,681.618713 469.224915,682.115662 467.164734,683.008118 C464.491882,684.165955 462.562225,686.174255 460.883789,688.513306 C455.269470,696.337402 450.601532,696.367065 445.135620,688.645752 C443.875549,686.865723 442.466888,685.242676 440.614075,684.073975 C438.154175,682.522400 435.480133,681.103210 432.823578,683.282898 C430.304352,685.350037 431.302368,688.133179 432.227020,690.651550 C434.963196,698.104004 440.515106,703.380798 446.300049,708.406738 C452.616333,713.894409 452.677856,713.823608 459.709839,708.231995 z"/>
<path fill="#000000" opacity="1.000000" stroke="none" 
	d="M298.693848,571.479858 C309.251434,565.962830 319.511078,566.495789 329.744720,571.249878 C332.324646,572.448486 334.693115,574.027466 336.471558,576.319641 C338.963196,579.531128 338.879578,582.879761 336.424042,585.955688 C334.007874,588.982361 330.771912,589.210388 327.412109,587.597351 C325.918365,586.880188 324.550903,585.900879 323.122406,585.046753 C319.420532,582.833313 315.399963,581.893555 311.144836,582.494812 C308.036682,582.933838 305.296295,584.280701 304.471527,587.656189 C303.582764,591.293457 305.438995,593.800049 308.490051,595.421265 C310.683960,596.587097 313.036743,597.460388 315.339996,598.412476 C319.488983,600.127563 323.808380,601.504944 327.781738,603.555847 C337.496735,608.570435 342.146942,616.582825 341.006531,625.583374 C339.641571,636.356689 333.554962,643.414124 322.478485,645.748047 C311.285400,648.106567 300.601898,646.679443 291.410889,639.064087 C290.515076,638.321899 289.631653,637.546814 288.847748,636.690613 C285.007843,632.496521 284.731506,628.081787 288.047852,624.670593 C291.338165,621.286194 295.903320,621.318604 299.944885,625.504761 C304.464569,630.186218 309.660675,632.292969 316.062897,631.739563 C320.138672,631.387207 323.749939,630.273743 324.661865,625.657043 C325.592560,620.945007 323.151703,618.023071 318.978271,616.356445 C313.879150,614.320251 308.655975,612.574890 303.636047,610.364075 C292.356079,605.396240 288.015350,598.651367 288.620270,587.602783 C289.007111,580.537109 292.547882,575.406616 298.693848,571.479858 z"/>
<path fill="#000000" opacity="1.000000" stroke="none" 
	d="M361.593506,593.267456 C375.474121,588.586304 388.144531,592.316284 394.560486,602.697937 C401.740509,614.315918 400.210907,630.152405 390.839203,639.582581 C380.335632,650.151611 354.916412,650.316650 347.485260,629.017822 C342.532715,614.823181 347.996857,600.567261 361.593506,593.267456 M374.084656,605.317322 C367.472504,605.352539 364.035278,607.763062 362.163635,613.677612 C360.252869,619.715881 362.255096,627.590393 366.645935,630.453308 C369.357727,632.221497 372.284607,633.024658 375.629272,631.787476 C380.754089,629.891724 383.553253,625.760925 383.682220,619.288147 C383.833801,611.680664 381.495575,607.996582 374.084656,605.317322 z"/>
<path fill="#000000" opacity="1.000000" stroke="none" 
	d="M481.342407,621.651123 C482.220001,626.846191 483.319305,631.542236 485.032684,636.065369 C486.635284,640.296021 485.884674,643.578247 481.498810,645.517944 C477.663788,647.213989 473.817230,645.680237 471.504242,641.499878 C470.788696,640.206665 470.233551,638.824707 469.385406,637.014893 C465.620758,642.148865 461.263672,645.802551 454.961884,646.281555 C442.859314,647.201355 435.623138,640.839417 432.937469,626.772034 C431.132111,617.315613 431.651855,607.889404 433.682709,598.537598 C434.802277,593.381897 437.793854,591.136902 442.468719,591.738647 C447.339417,592.365662 448.500549,595.611206 448.383698,599.978638 C448.175537,607.760559 446.317047,615.516418 448.239105,623.345581 C449.085144,626.791565 449.389038,630.801331 453.587616,631.438538 C458.186981,632.136597 460.286926,628.531738 461.845520,624.852600 C463.682404,620.516357 464.390594,615.919922 464.742828,611.260559 C465.068970,606.945679 465.241943,602.615723 465.694702,598.314758 C466.165497,593.842834 469.069061,591.448853 473.440643,591.700073 C477.871490,591.954773 480.170044,594.568787 480.246643,598.786804 C480.382629,606.276245 480.282288,613.767395 481.342407,621.651123 z"/>
<path fill="#000000" opacity="1.000000" stroke="none" 
	d="M399.673462,653.048462 C404.471252,654.267212 406.097900,651.512390 406.831726,647.935486 C408.984558,637.441589 408.998322,626.815002 408.408447,616.183228 C408.142029,611.380798 407.535156,606.597717 407.105255,601.803833 C406.704712,597.337769 409.077301,594.250671 413.292694,593.706543 C418.174286,593.076477 421.548065,594.997375 422.055817,599.611450 C423.417480,611.984619 424.908691,624.381775 423.750763,636.875916 C423.231110,642.482727 423.021606,648.103027 421.482544,653.612976 C417.521637,667.793762 403.212158,670.207458 393.018524,665.921143 C388.303314,663.938416 386.196289,659.912842 387.335205,656.109253 C388.910492,650.848145 392.528290,649.882080 399.673462,653.048462 z"/>
<path fill="#000000" opacity="1.000000" stroke="none" 
	d="M405.462250,575.799194 C407.415192,570.541077 411.202911,569.081360 415.948700,569.818115 C419.925903,570.435547 422.563385,572.833496 423.236481,576.922791 C423.846588,580.629639 423.000458,583.940796 419.575470,585.998108 C416.181885,588.036560 412.482941,588.146118 409.202972,586.020264 C405.755676,583.786011 404.065765,580.458679 405.462250,575.799194 z"/>
</svg>