<svg xmlns="http://www.w3.org/2000/svg" version="1.0" 
     width="760" height="760" 
     viewBox="170 130 760 760">
    <style>
        /* 기본 상태: 검정색 */
        #path1 { fill: #000000; }
        
        /* 다크모드 상태: 흰색 */
        @media (prefers-color-scheme: dark) {
            #path1 { fill: #ffffff; }
        }
    </style>
    <g>
        <path id="path1"
            d="m 0,0 c 17.847,13.252 31.413,30.844 39.383,51.133 2.624,6.682 9.334,25.264 7.278,49.266 L 150.031,0 Z M 189.05,0 13.065,170.926 c -3.413,3.61 -7.142,7.218 -11.219,10.808 -18.305,16.126 -44.357,40.531 -47.491,74.333 -3.435,37.016 21.32,63.519 49.902,67.166 12.336,1.572 23.814,0.658 37.146,-3.21 8.557,-2.484 12.376,-4.338 16.622,-0.77 2.899,2.428 3.435,7.688 -0.373,11.817 -34.214,37.039 -108.966,83.011 -206.251,56.872 -41.703,-11.208 -83.695,-38.84 -112.965,-79.902 -70.909,-99.583 -28.296,-209.367 9.017,-251.227 8.137,-10.51 17.237,-19.096 22.54,-23.733 2.711,-2.396 6.038,-1.571 7.294,1.234 20.426,45.322 52.049,104.096 132.186,133.546 3.921,1.421 4.677,3.556 -1.288,3.155 -89.72,-6.096 -134.894,-77.661 -134.894,-77.661 -31.699,43.745 -35.969,90.044 -30.834,126.156 l 39.961,-73.309 -30.375,100.715 68.815,-65.14 -0.061,0.648 -58.509,95.398 18.026,25.872 117.569,-10.475 0.556,0.21 -93.17,36.725 c 0.18,0.148 0.367,0.297 0.548,0.446 l 96.962,4.628 0.087,0.16 -69.424,13.676 c 8.188,4.394 17.345,8.465 27.534,11.881 82.711,27.684 147.154,-18.804 145.764,-18.734 -45.605,2.239 -94.7,-31.248 -92.764,-87.63 1.524,-44.016 27.59,-69.701 56.812,-97.446 C 4.695,124.941 17.498,89.267 5.455,54.265 -5.263,23.108 -34.493,-1.445 -79.852,0.215 c -33.186,1.214 -63.06,20.464 -80.753,40.928 -4.912,-5.795 -16.286,-25.867 -19.004,-32.748 -1.679,-3.033 -0.326,-4.877 1.053,-5.487 35.615,-22.58 71.049,-28.938 95.573,-28.938 3.5,0 6.949,0.12 10.352,0.34 h 297.48 V 0 Z"
            style="fill-opacity:1;fill-rule:nonzero;stroke:none"
            transform="matrix(1.3333333,0,0,-1.3333333,608.814,755.95427)" />
    </g>
</svg>
